<svg xmlns="http://www.w3.org/2000/svg" version="1.1" xmlns:xlink="http://www.w3.org/1999/xlink" xmlns:svgjs="http://svgjs.dev/svgjs" width="1500" height="935" viewBox="0 0 1500 935"><g transform="matrix(1,0,0,1,-0.9090909090909918,0.3785425101214628)"><svg viewBox="0 0 396 247" data-background-color="#161618" preserveAspectRatio="xMidYMid meet" height="935" width="1500" xmlns="http://www.w3.org/2000/svg" xmlns:xlink="http://www.w3.org/1999/xlink"><g id="tight-bounds" transform="matrix(1,0,0,1,0.2400000000000091,-0.09999999999999432)"><svg viewBox="0 0 395.52 247.2" height="247.2" width="395.52"><g><svg></svg></g><g><svg viewBox="0 0 395.52 247.2" height="247.2" width="395.52"><g transform="matrix(1,0,0,1,75.54432000000001,76.3022756226415)"><svg viewBox="0 0 244.43135999999996 94.59544875471697" height="94.59544875471697" width="244.43135999999996"><g><svg viewBox="0 0 244.43135999999996 94.59544875471697" height="94.59544875471697" width="244.43135999999996"><g><svg viewBox="0 0 244.43135999999996 94.59544875471697" height="94.59544875471697" width="244.43135999999996"><g><svg viewBox="0 0 244.43135999999996 94.59544875471697" height="94.59544875471697" width="244.43135999999996"><g id="textblocktransform"><svg viewBox="0 0 244.43135999999996 94.59544875471697" height="94.59544875471697" width="244.43135999999996" id="textblock"><g><svg viewBox="0 0 244.43135999999996 94.59544875471697" height="94.59544875471697" width="244.43135999999996"><g transform="matrix(1,0,0,1,0,0)"><svg width="244.43135999999996" viewBox="3.03 -44.58 116.44 45.07" height="94.59544875471697" data-palette-color="#ffffff"><path d="M11.21 0.44L11.21 0.44Q8.54 0.44 6.92-0.46 5.3-1.37 4.46-3.06 3.61-4.76 3.32-7.12 3.03-9.47 3.03-12.35L3.03-12.35 3.03-24.61Q3.03-28.27 3.64-31.08 4.25-33.89 6.03-35.47 7.81-37.06 11.33-37.06L11.33-37.06Q13.77-37.06 15.27-36.25 16.77-35.45 17.57-33.94 18.36-32.42 18.64-30.32 18.92-28.22 18.92-25.66L18.92-25.66 18.92-23.12 13.99-23.12 13.99-26.34Q13.99-28.44 13.85-29.87 13.72-31.3 13.16-32.03 12.6-32.76 11.28-32.76L11.28-32.76Q9.89-32.76 9.2-31.97 8.52-31.18 8.29-29.7 8.06-28.22 8.06-26.2L8.06-26.2 8.06-10.62Q8.06-8.35 8.25-6.85 8.45-5.35 9.11-4.6 9.77-3.86 11.13-3.86L11.13-3.86Q12.45-3.86 13.05-4.65 13.65-5.44 13.82-6.95 13.99-8.45 13.99-10.52L13.99-10.52 13.99-14.06 18.92-14.06 18.92-11.69Q18.92-8.98 18.65-6.76 18.38-4.54 17.59-2.93 16.8-1.32 15.26-0.44 13.72 0.44 11.21 0.44ZM30.86 0.49L30.86 0.49Q29.22 0.49 27.83-0.32 26.44-1.12 25.58-2.92 24.73-4.71 24.73-7.62L24.73-7.62 24.73-36.62 29.73-36.62 29.73-8.18Q29.73-6.05 30.49-4.96 31.25-3.86 32.88-3.86L32.88-3.86Q34.69-3.86 35.56-5.11 36.42-6.37 36.42-8.3L36.42-8.3 36.42-36.62 41.45-36.62 41.45 0 36.42 0 36.42-3.74Q35.89-2.03 34.49-0.77 33.1 0.49 30.86 0.49ZM55.32 0.49L55.32 0.49Q51.41 0.49 49.38-1.97 47.36-4.42 47.36-10.11L47.36-10.11 47.36-12.87 52.22-12.87 52.22-10.13Q52.22-7.06 52.89-5.42 53.56-3.78 55.1-3.78L55.1-3.78Q56.64-3.78 57.36-4.79 58.08-5.79 58.08-8.37L58.08-8.37Q58.08-9.67 57.69-10.95 57.29-12.23 56.49-13.49 55.68-14.75 54.41-15.94L54.41-15.94 51.83-18.41Q49.51-20.63 48.29-23.13 47.07-25.63 47.07-28.44L47.07-28.44Q47.07-32.89 49.16-34.97 51.26-37.06 54.95-37.06L54.95-37.06Q57.42-37.06 59.1-35.99 60.79-34.91 61.64-32.42 62.5-29.93 62.5-25.63L62.5-25.63 62.5-23.88 57.73-23.88 57.73-26.42Q57.73-29.49 57.14-31.13 56.54-32.76 55-32.76L55-32.76Q53.51-32.76 52.77-31.9 52.02-31.03 51.95-28.74L51.95-28.74Q51.92-27.56 52.25-26.37 52.58-25.17 53.34-24 54.1-22.83 55.29-21.7L55.29-21.7 57.93-19.24Q60.49-16.87 61.8-14.15 63.11-11.43 63.11-8.4L63.11-8.4Q63.11-4.25 61.21-1.88 59.32 0.49 55.32 0.49ZM73.21 0L68.18 0 68.18-36.62 73.21-36.62 73.21 0ZM73.21-39.99L68.18-39.99 68.18-44.58 73.21-44.58 73.21-39.99ZM85.34 0L80.34 0 80.34-36.62 85.34-36.62 85.34-32.74Q85.83-34.45 87.43-35.77 89.03-37.08 91.25-37.08L91.25-37.08Q94.01-37.08 95.55-35.13 97.08-33.18 97.08-29.2L97.08-29.2 97.08 0 92.08 0 92.08-29.17Q92.08-31.13 91.2-32.01 90.32-32.89 88.95-32.89L88.95-32.89Q87.95-32.89 87.12-32.45 86.29-32.01 85.82-31.08 85.34-30.15 85.34-28.69L85.34-28.69 85.34 0ZM111.56 0.44L111.56 0.44Q108.92 0.44 107.32-0.48 105.72-1.39 104.89-3.08 104.06-4.76 103.78-7.12 103.5-9.47 103.5-12.33L103.5-12.33 103.5-25.27Q103.5-27.86 103.87-30.02 104.24-32.18 105.14-33.75 106.04-35.33 107.65-36.19 109.26-37.06 111.76-37.06L111.76-37.06Q114.27-37.06 115.81-36.18 117.35-35.3 118.14-33.7 118.93-32.1 119.2-29.9 119.47-27.69 119.47-25.05L119.47-25.05 119.47-18.14 108.53-18.14 108.53-10.84Q108.53-7.37 109.01-5.55 109.48-3.74 111.61-3.74L111.61-3.74Q113-3.74 113.6-4.6 114.2-5.47 114.33-7.04 114.47-8.62 114.47-10.77L114.47-10.77 114.47-13.72 119.37-13.72 119.37-12.16Q119.37-9.3 119.14-6.98 118.91-4.66 118.15-3 117.39-1.34 115.82-0.45 114.25 0.44 111.56 0.44ZM108.51-26.03L108.51-21.53 114.47-21.53 114.47-26.2Q114.47-28.39 114.32-29.9 114.17-31.4 113.61-32.17 113.05-32.93 111.76-32.93L111.76-32.93Q110.31-32.93 109.62-32.06 108.92-31.18 108.72-29.63 108.51-28.08 108.51-26.03L108.51-26.03Z" opacity="1" transform="matrix(1,0,0,1,0,0)" fill="#ffffff" class="wordmark-text-0" data-fill-palette-color="primary" id="text-0"></path></svg></g></svg></g></svg></g></svg></g></svg></g></svg></g></svg></g><g><path d="M0 123.6c0-68.262 55.338-123.6 123.6-123.6 47.113 0 88.07 26.36 108.926 65.136h-4.869c-20.457-36.332-59.391-60.871-104.057-60.871-65.907 0-119.335 53.428-119.335 119.335 0 65.907 53.428 119.335 119.335 119.335 44.666 0 83.6-24.539 104.057-60.871l4.869 0c-20.856 38.776-61.813 65.136-108.926 65.136-68.262 0-123.6-55.338-123.6-123.6z" fill="#ffffff" stroke="transparent" data-fill-palette-color="tertiary"></path></g></svg></g><defs></defs></svg><rect width="395.52" height="247.2" fill="none" stroke="none" visibility="hidden"></rect></g></svg></g></svg>